<svg xmlns="http://www.w3.org/2000/svg" viewBox="0 0 560 118" role="img" aria-labelledby="title desc">
  <title id="title">Podaturpet Lungi Weaving and Textile Hub</title>
  <desc id="desc">Original woven diamond emblem in navy and gold with Podaturpet wordmark.</desc>
  <defs>
    <linearGradient id="gold" x1="0" y1="0" x2="1" y2="1">
      <stop offset="0" stop-color="#f6cf67"/>
      <stop offset="1" stop-color="#d39a20"/>
    </linearGradient>
    <linearGradient id="navy" x1="0" y1="0" x2="1" y2="1">
      <stop offset="0" stop-color="#0b3f6f"/>
      <stop offset="1" stop-color="#062645"/>
    </linearGradient>
  </defs>
  <g transform="translate(8 10)">
    <g transform="rotate(45 49 49)">
      <rect x="18" y="18" width="18" height="18" rx="3" fill="url(#gold)"/>
      <rect x="40" y="18" width="18" height="18" rx="3" fill="url(#navy)"/>
      <rect x="62" y="18" width="18" height="18" rx="3" fill="url(#gold)"/>
      <rect x="18" y="40" width="18" height="18" rx="3" fill="url(#navy)"/>
      <rect x="40" y="40" width="18" height="18" rx="3" fill="url(#gold)"/>
      <rect x="62" y="40" width="18" height="18" rx="3" fill="url(#navy)"/>
      <rect x="18" y="62" width="18" height="18" rx="3" fill="url(#gold)"/>
      <rect x="40" y="62" width="18" height="18" rx="3" fill="url(#navy)"/>
      <rect x="62" y="62" width="18" height="18" rx="3" fill="url(#gold)"/>
      <path d="M12 49H86M49 12V86" stroke="#f8e3a5" stroke-width="3" opacity=".85"/>
    </g>
  </g>
  <text x="118" y="49" fill="#f8faf9" font-family="Georgia, 'Times New Roman', serif" font-size="34" font-weight="700" letter-spacing="1">PODATURPET</text>
  <text x="120" y="74" fill="#e7bd57" font-family="Arial, Helvetica, sans-serif" font-size="14" font-weight="700" letter-spacing="1.1">LUNGI WEAVING &amp; TEXTILE HUB</text>
  <text x="120" y="96" fill="#cfe0da" font-family="Arial, Helvetica, sans-serif" font-size="11.5" letter-spacing=".65">WOVEN TRUST • DELIVERED WORLDWIDE</text>
</svg>